<mxfile host="app.diagrams.net" modified="2022-05-18T00:47:53.151Z" agent="5.0 (Windows NT 10.0; Win64; x64) AppleWebKit/537.36 (KHTML, like Gecko) Chrome/96.0.4664.110 Safari/537.36" etag="EDr0ENebggVxL5DCq1km" version="18.0.2" type="github">
  <diagram id="Fc8ZvudnAFuiCcukRMAc" name="第 1 页">
    <mxGraphModel dx="3903" dy="801" grid="1" gridSize="10" guides="1" tooltips="1" connect="1" arrows="1" fold="1" page="1" pageScale="1" pageWidth="827" pageHeight="1169" math="0" shadow="0">
      <root>
        <mxCell id="0" />
        <mxCell id="1" parent="0" />
        <mxCell id="GGW8rHrlYu5Zyouv8Jk--1" value="Mindmap" style="swimlane;startSize=20;horizontal=1;containerType=tree;" vertex="1" parent="1">
          <mxGeometry x="-2160" y="210" width="800" height="740" as="geometry" />
        </mxCell>
        <mxCell id="GGW8rHrlYu5Zyouv8Jk--2" value="" style="edgeStyle=entityRelationEdgeStyle;startArrow=none;endArrow=none;segment=10;curved=1;rounded=0;" edge="1" parent="GGW8rHrlYu5Zyouv8Jk--1" source="GGW8rHrlYu5Zyouv8Jk--6" target="GGW8rHrlYu5Zyouv8Jk--7">
          <mxGeometry relative="1" as="geometry" />
        </mxCell>
        <mxCell id="GGW8rHrlYu5Zyouv8Jk--3" value="" style="edgeStyle=entityRelationEdgeStyle;startArrow=none;endArrow=none;segment=10;curved=1;rounded=0;" edge="1" parent="GGW8rHrlYu5Zyouv8Jk--1" source="GGW8rHrlYu5Zyouv8Jk--6" target="GGW8rHrlYu5Zyouv8Jk--8">
          <mxGeometry relative="1" as="geometry" />
        </mxCell>
        <mxCell id="GGW8rHrlYu5Zyouv8Jk--6" value="Redis" style="ellipse;whiteSpace=wrap;html=1;align=center;treeFolding=1;treeMoving=1;newEdgeStyle={&quot;edgeStyle&quot;:&quot;entityRelationEdgeStyle&quot;,&quot;startArrow&quot;:&quot;none&quot;,&quot;endArrow&quot;:&quot;none&quot;,&quot;segment&quot;:10,&quot;curved&quot;:1};" vertex="1" parent="GGW8rHrlYu5Zyouv8Jk--1">
          <mxGeometry x="10" y="317" width="100" height="40" as="geometry" />
        </mxCell>
        <mxCell id="GGW8rHrlYu5Zyouv8Jk--7" value="Topic" style="whiteSpace=wrap;html=1;rounded=1;arcSize=50;align=center;verticalAlign=middle;strokeWidth=1;autosize=1;spacing=4;treeFolding=1;treeMoving=1;newEdgeStyle={&quot;edgeStyle&quot;:&quot;entityRelationEdgeStyle&quot;,&quot;startArrow&quot;:&quot;none&quot;,&quot;endArrow&quot;:&quot;none&quot;,&quot;segment&quot;:10,&quot;curved&quot;:1};" vertex="1" parent="GGW8rHrlYu5Zyouv8Jk--1">
          <mxGeometry x="150" y="297" width="80" height="20" as="geometry" />
        </mxCell>
        <mxCell id="GGW8rHrlYu5Zyouv8Jk--8" value="Branch" style="whiteSpace=wrap;html=1;shape=partialRectangle;top=0;left=0;bottom=1;right=0;points=[[0,1],[1,1]];fillColor=none;align=center;verticalAlign=bottom;routingCenterY=0.5;snapToPoint=1;autosize=1;treeFolding=1;treeMoving=1;newEdgeStyle={&quot;edgeStyle&quot;:&quot;entityRelationEdgeStyle&quot;,&quot;startArrow&quot;:&quot;none&quot;,&quot;endArrow&quot;:&quot;none&quot;,&quot;segment&quot;:10,&quot;curved&quot;:1};" vertex="1" parent="GGW8rHrlYu5Zyouv8Jk--1">
          <mxGeometry x="154" y="357" width="72" height="26" as="geometry" />
        </mxCell>
        <mxCell id="GGW8rHrlYu5Zyouv8Jk--11" value="" style="edgeStyle=entityRelationEdgeStyle;startArrow=none;endArrow=none;segment=10;curved=1;rounded=0;" edge="1" target="GGW8rHrlYu5Zyouv8Jk--12" source="GGW8rHrlYu5Zyouv8Jk--6" parent="GGW8rHrlYu5Zyouv8Jk--1">
          <mxGeometry relative="1" as="geometry">
            <mxPoint x="-2070" y="547" as="sourcePoint" />
          </mxGeometry>
        </mxCell>
        <mxCell id="GGW8rHrlYu5Zyouv8Jk--12" value="Topic" style="whiteSpace=wrap;html=1;rounded=1;arcSize=50;align=center;verticalAlign=middle;strokeWidth=1;autosize=1;spacing=4;treeFolding=1;treeMoving=1;newEdgeStyle={&quot;edgeStyle&quot;:&quot;entityRelationEdgeStyle&quot;,&quot;startArrow&quot;:&quot;none&quot;,&quot;endArrow&quot;:&quot;none&quot;,&quot;segment&quot;:10,&quot;curved&quot;:1};" vertex="1" parent="GGW8rHrlYu5Zyouv8Jk--1">
          <mxGeometry x="150" y="210" width="80" height="20" as="geometry" />
        </mxCell>
      </root>
    </mxGraphModel>
  </diagram>
</mxfile>
